# xmcd
#
# Track frame offsets: 
#        150
#        13188
#        30431
#        46193
#        63111
#        79736
#        97651
#        115385
#        128106
#        142645
#        155743
#        169210
#        189531
#        202871
#        213427
#        226306
#        241479
#        253810
#        265959
#        276765
#        290883
#        302906
#        314381
#        328221
#
# Disc length: 4504 seconds
#
# Revision: 0
# Processed by: cddbd v1.5.2PL0 Copyright (c) Steve Scherf et al.
# Submitted via: ExactAudioCopy v1.0b1
#
DISCID=58119618
DTITLE=Earl Grant - Nothin´But The Versitale Earl Grant CD2
DYEAR=2012
DGENRE=Jazz
TTITLE0=Stormy Weather (Keeps Rainin' All The Time)
TTITLE1=Bewitched
TTITLE2=Canadian Sunset
TTITLE3=Dreamy
TTITLE4='m In The Mood For Love
TTITLE5=That's All
TTITLE6=Ebb Tide
TTITLE7=My Foolish Heart
TTITLE8=Deep Purple
TTITLE9=Misty
TTITLE10=Evening Rain
TTITLE11=Theme From 'Exodus'
TTITLE12=Under Paris Skies (Sous La Ciel De Paris)
TTITLE13=The River Seine (La Seine)
TTITLE14=April In Paris
TTITLE15=peak To Me Of Love (Parlez Moi D'Amour)
TTITLE16=Come Ci, Comma Ca (Clopin, Clopant)
TTITLE17=Bon Soir
TTITLE18=C'est Si Bon (It's So Good)
TTITLE19=Two Loves Have I (J'ai Deux Amours)
TTITLE20=(Ah! The Apple Tree) When The World Was Young (Les Pommiers D
TTITLE20=oux)
TTITLE21=The Song From The Moulin Rouge (Where Is Your Heart)
TTITLE22=Beyond The Sea (La Mer)
TTITLE23=I Love Paris
EXTD=
EXTT0=
EXTT1=
EXTT2=
EXTT3=
EXTT4=
EXTT5=
EXTT6=
EXTT7=
EXTT8=
EXTT9=
EXTT10=
EXTT11=
EXTT12=
EXTT13=
EXTT14=
EXTT15=
EXTT16=
EXTT17=
EXTT18=
EXTT19=
EXTT20=
EXTT21=
EXTT22=
EXTT23=
PLAYORDER=
